<?xml version="1.0" encoding="UTF-8" standalone="no"?>
<!-- Created with Inkscape (http://www.inkscape.org/) -->

<svg
   xmlns:dc="http://purl.org/dc/elements/1.1/"
   xmlns:cc="http://creativecommons.org/ns#"
   xmlns:rdf="http://www.w3.org/1999/02/22-rdf-syntax-ns#"
   xmlns:svg="http://www.w3.org/2000/svg"
   xmlns="http://www.w3.org/2000/svg"
   xmlns:sodipodi="http://sodipodi.sourceforge.net/DTD/sodipodi-0.dtd"
   xmlns:inkscape="http://www.inkscape.org/namespaces/inkscape"
   width="1024"
   height="1024"
   viewBox="0 0 270.93333 270.93333"
   version="1.1"
   id="svg8"
   inkscape:version="0.92.3 (unknown)"
   sodipodi:docname="icon.svg"
   inkscape:export-filename="/home/iiitk/Documents/nil_k/iiitk-project/dr-water/icon/splash.png"
   inkscape:export-xdpi="256.12503"
   inkscape:export-ydpi="256.12503">
  <defs
     id="defs2" />
  <sodipodi:namedview
     id="base"
     pagecolor="#ffffff"
     bordercolor="#666666"
     borderopacity="1.0"
     inkscape:pageopacity="0.0"
     inkscape:pageshadow="2"
     inkscape:zoom="0.24748737"
     inkscape:cx="404.16957"
     inkscape:cy="-498.46664"
     inkscape:document-units="mm"
     inkscape:current-layer="layer1"
     showgrid="false"
     inkscape:window-width="1855"
     inkscape:window-height="1056"
     inkscape:window-x="65"
     inkscape:window-y="24"
     inkscape:window-maximized="1"
     units="px" />
  <metadata
     id="metadata5">
    <rdf:RDF>
      <cc:Work
         rdf:about="">
        <dc:format>image/svg+xml</dc:format>
        <dc:type
           rdf:resource="http://purl.org/dc/dcmitype/StillImage" />
        <dc:title></dc:title>
      </cc:Work>
    </rdf:RDF>
  </metadata>
  <g
     inkscape:label="Layer 1"
     inkscape:groupmode="layer"
     id="layer1"
     transform="translate(0,-26.066725)">
    <g
       id="g1059"
       transform="matrix(0.22184607,0,0,0.2418577,12.51403,204.77652)"
       inkscape:export-xdpi="256.12503"
       inkscape:export-ydpi="256.12503">
      <path
         id="path217"
         overflow="visible"
         display="inline"
         visibility="visible"
         marker="none"
         style="color:#000000;text-indent:0;text-transform:none;direction:ltr;baseline-shift:baseline;display:inline;overflow:visible;visibility:visible;fill:#603d5f;fill-opacity:1;fill-rule:evenodd;stroke:none;stroke-width:5.29241133;enable-background:accumulate"
         d="m 252.34559,-169.59499 c 5.46917,0.06 11.29819,1.3762 17.0346,4.13438 l 99.06715,47.63171 c 4.70186,-10.85313 16.04986,-18.22657 28.77805,-17.86192 l 56.89341,1.65424 c 13.94556,0 24.57046,-3.27866 37.87353,-7.112 13.34688,-3.84595 29.16591,-8.10374 51.10459,-8.10374 18.06875,0 42.49659,5.52537 62.35158,12.23832 v -12.40395 c 0,-1.38619 0.14002,-2.8546 0.6621,-4.13498 0.53007,-1.28018 1.33618,-2.49315 2.31532,-3.47289 0.98014,-0.98014 2.19371,-1.78425 3.47289,-2.31532 1.28018,-0.53008 2.74999,-0.6621 4.13498,-0.6621 h 57.22426 c 1.38619,0 2.8548,0.14002 4.13438,0.6621 1.28018,0.53007 2.49375,1.33618 3.47349,2.31532 0.98014,0.98014 1.78425,2.19331 2.31533,3.47289 0.53007,1.28018 0.66209,2.74939 0.66209,4.13498 v 43.16648 114.2828878 c 0,1.3841949 -0.14002,2.6895782 -0.66209,3.9691592 -0.53008,1.28018 -1.33619,2.493951 -2.31533,3.473489 -0.98014,0.980138 -2.19371,1.784251 -3.47349,2.314925 -1.28018,0.530075 -2.74879,0.826117 -4.13438,0.826117 h -57.22426 c -1.38419,0 -2.8552,-0.296042 -4.13498,-0.826117 -1.27818,-0.530074 -2.49315,-1.336188 -3.47289,-2.314925 -0.98014,-0.980138 -1.78425,-2.193709 -2.31532,-3.473489 -0.53008,-1.280181 -0.6621,-2.5841642 -0.6621,-3.9691592 V -5.5304914 C 535.76169,-17.861827 494.23745,3.1211265 431.46041,3.0697193 c -12.98703,-0.0052 -26.63255,-6.3826986 -43.66235,-15.2157423 -17.0332,-8.834644 -36.52134,-20.682111 -56.23192,-33.408303 -39.42155,-25.451783 -79.70802,-54.427062 -100.72157,-68.635664 -7.20922,-4.88549 -11.52523,-12.57317 -12.40375,-20.17784 -0.87812,-7.60367 1.22217,-15.01091 5.45797,-21.16978 5.82382,-8.46719 16.41291,-14.2094 28.4468,-14.05758 z m -1.48821,20.67311 c -4.76567,-0.06 -7.59767,2.39174 -9.59235,5.29255 -1.52021,2.21011 -2.04869,4.95689 -1.82025,6.94677 0.23003,1.98828 0.7541,3.34048 3.14264,4.9611 21.64605,14.63666 61.76029,43.423116 100.55575,68.471043 19.39994,12.525563 38.40821,24.114395 54.41246,32.416163 16.00486,8.301169 29.90521,12.734593 33.90478,12.734593 56.8188,0.06001 101.30946,-20.889741 173.98809,-8.931057 v -9.096081 c -0.0176,-1.398197 0.14002,-2.8398 0.6621,-4.134982 0.52207,-1.294182 1.33418,-2.479349 2.31532,-3.473289 0.98214,-0.99414 2.18471,-1.77825 3.47289,-2.314926 1.28818,-0.538076 2.73899,-0.828116 4.13498,-0.828116 1.3962,0 2.68058,0.292041 3.96936,0.828116 1.28818,0.538076 2.49175,1.322186 3.47349,2.314926 0.98214,0.99414 1.79225,2.178307 2.31473,3.473289 0.52407,1.296183 0.84411,2.738386 0.82811,4.134982 v 33.5735267 h 5.29235 V -138.83286 h -5.29235 v 33.40831 c 0.0174,1.39619 -0.30404,2.8394 -0.82811,4.13438 -0.52208,1.29618 -1.33419,2.479547 -2.31473,3.473486 -0.98214,0.99414 -2.18531,1.776251 -3.47349,2.315526 -1.28818,0.538076 -2.57256,0.826117 -3.96936,0.826117 -1.39619,0 -2.8462,-0.292041 -4.13498,-0.826117 -1.28818,-0.538075 -2.49155,-1.322186 -3.47289,-2.315526 -0.98214,-0.994139 -1.79225,-2.177906 -2.31532,-3.473486 -0.52208,-1.29418 -0.6801,-2.73819 -0.6621,-4.13438 v -9.09649 c -18.67443,-6.88336 -47.33386,-13.5613 -62.35158,-13.5613 -19.34212,0 -32.30594,3.52849 -45.31578,7.27702 -13.01023,3.74853 -26.40531,7.93852 -43.82797,7.93852 -0.10001,0 -0.06,0.005 -0.16002,0 l -57.22365,-1.65424 c -5.36016,-0.14001 -9.26171,4.01537 -9.26171,7.93852 0,3.92596 3.79614,7.666682 10.08822,7.93872 l 108.6597,4.796475 c 1.3982,0.06001 2.69478,0.248035 3.96916,0.826117 1.27418,0.576081 2.52035,1.456205 3.47349,2.480549 0.95413,1.024144 1.66623,2.160904 2.1503,3.473489 0.48407,1.312185 0.7221,2.737185 0.66209,4.134382 -0.06,1.396196 -0.39805,2.868404 -0.99214,4.134382 -0.59408,1.266178 -1.4442,2.369934 -2.48055,3.307866 -1.03614,0.938132 -2.32032,1.684237 -3.63851,2.150302 -1.31818,0.466066 -2.73898,0.576081 -4.13458,0.49807 l -108.6601,-4.630852 c -11.369,-0.486068 -22.0169,-6.739948 -27.12362,-16.373105 L 260.12529,-146.43953 c -3.71313,-1.78625 -6.76576,-2.44674 -9.26171,-2.48115 z"
         inkscape:connector-curvature="0" />
      <path
         id="path219"
         overflow="visible"
         display="inline"
         visibility="visible"
         marker="none"
         style="color:#000000;text-indent:0;text-transform:none;direction:ltr;baseline-shift:baseline;display:inline;overflow:visible;visibility:visible;fill:#00ff61;fill-opacity:1;fill-rule:evenodd;stroke:none;stroke-width:5.29241133;enable-background:accumulate"
         d="m 464.27783,-343.016 c 1.89226,-0.06 3.79573,0.41406 5.45797,1.32218 1.66223,0.90813 3.00502,2.17351 3.96936,3.80414 5.46856,9.2517 18.32397,28.18157 29.76979,47.30046 5.7232,9.56014 11.10556,19.26791 15.21574,28.28158 4.10958,9.01407 7.27702,17.0654 7.27702,25.63541 0,33.77335 -27.58468,61.35864 -61.35864,61.35864 -33.77455,0 -61.35923,-27.58529 -61.35923,-61.35864 0,-8.57001 3.00242,-16.62134 7.112,-25.63541 4.10958,-9.01367 9.65816,-18.72144 15.38076,-28.28158 11.44641,-19.11889 24.30122,-38.04876 29.76979,-47.30046 0.89813,-1.52022 2.1229,-2.73619 3.63852,-3.63911 1.51621,-0.90213 3.36447,-1.4242 5.12692,-1.48821 z m 0.33204,30.43148 c -6.23827,9.67176 -13.87035,21.2728 -20.83933,32.91243 -5.49617,9.1817 -10.49388,18.31278 -14.05778,26.13068 -3.5645,7.8185 -5.29234,14.69547 -5.29234,16.87018 0,22.32434 17.86391,40.18886 40.18945,40.18886 22.32495,0 40.18906,-17.86452 40.18906,-40.18886 0,-2.17471 -1.72824,-9.05168 -5.29254,-16.87018 -3.5643,-7.8179 -8.72603,-16.94898 -14.2234,-26.13068 -6.96799,-11.63963 -14.43544,-23.24127 -20.67312,-32.91243 z"
         inkscape:connector-curvature="0" />
      <path
         id="path221"
         overflow="visible"
         display="inline"
         visibility="visible"
         marker="none"
         style="color:#000000;text-indent:0;text-transform:none;direction:ltr;baseline-shift:baseline;display:inline;overflow:visible;visibility:visible;fill:#4d7e5c;fill-opacity:1;fill-rule:evenodd;stroke:none;stroke-width:5.29241133;enable-background:accumulate"
         d="m 379.46149,-369.03027 c 1.90026,-0.08 3.81914,0.38206 5.48677,1.29619 1.66823,0.91413 3.08123,2.28792 4.04277,3.92955 3.22845,5.51098 11.40841,17.54647 18.68383,29.70158 3.63751,6.07786 7.0946,12.25093 9.77938,18.13035 2.68537,5.87863 4.90229,11.11497 4.90229,17.6913 0,23.38029 -19.1537,42.54959 -42.49799,42.54959 -23.38089,0 -42.54939,-19.1693 -42.54939,-42.54959 0,-6.57633 2.21592,-11.81367 4.90169,-17.6929 2.68658,-5.88002 6.14607,-12.05309 9.78778,-18.13195 7.28343,-12.15711 15.47618,-24.1874 18.74524,-29.72838 0.89613,-1.51822 2.17991,-2.8078 3.69512,-3.71113 1.51621,-0.90412 3.25966,-1.4182 5.02251,-1.4842 z"
         inkscape:connector-curvature="0" />
      <polygon
         style="fill:#f03b0b;fill-opacity:1"
         id="polygon223"
         points="14.9,30.6 14.9,37.4 23.6,37.4 23.6,45.9 30.3,45.9 30.3,37.2 38.9,37.2 38.9,30.6 30.3,30.6 30.3,21.9 23.4,21.9 23.4,30.6 "
         transform="matrix(5.2924117,0,0,5.2924117,673.94494,-608.94824)" />
      <path
         sodipodi:nodetypes="cccscccscscccccscscccccccccssscccccccccccccccccccssscccccscccccccccccc"
         id="path225"
         d="m 976.39012,-587.77886 c -14.07858,-12.51376 -31.2858,-21.89948 -46.9286,-29.72098 -1.56422,-1.56623 -3.12884,-1.56623 -4.69326,-3.12744 -9.38573,-6.25709 -21.89989,-12.51457 -32.85003,-12.51457 -6.25708,0 -10.94994,1.56622 -15.6428,4.69426 -12.51436,9.38573 -18.77144,20.33587 -18.77144,32.84983 1.56422,9.38572 7.8215,18.77144 20.33566,25.02892 4.69266,1.56022 7.8215,3.12764 12.51436,3.12764 6.25708,0 12.51436,-1.56622 17.20722,-4.69426 4.69306,-1.56622 7.8213,-3.12764 12.51417,-3.12764 10.95014,0 23.4643,14.07878 34.41444,37.54289 14.07858,32.85022 -1.56422,71.95693 -15.643,106.37157 -3.12864,7.8215 -6.25708,15.6428 -9.38572,23.46411 -12.51417,32.85022 -25.02853,67.26446 -37.54289,100.11469 -9.38572,4.69446 -15.6428,12.51396 -17.20702,23.4641 -10.95014,70.39311 -46.92861,76.65019 -57.87875,76.65019 h -1.56422 -1.56422 c -17.20722,0 -31.2858,-12.51456 -42.23575,-34.41424 l -4.69246,-7.8219 c -7.8215,-17.20703 -10.95014,-32.84963 -10.95014,-34.41405 -1.56422,-9.38572 -6.25708,-15.6426 -14.07858,-20.33586 0,-1.56622 -1.56422,-4.69426 -3.12864,-6.25688 -17.20722,-48.49303 -40.67153,-112.62866 -61.00719,-176.76449 -9.38572,-29.72138 -1.56422,-56.31432 21.90008,-78.21441 6.25708,-4.69446 12.51417,-9.38572 18.77145,-7.8213 3.12864,0 4.69246,1.56622 7.8213,3.12744 4.69246,1.56022 9.38572,4.69446 15.6428,4.69446 h 1.56422 c 18.77144,0 37.54289,-12.51456 37.54289,-32.84982 0,-9.38572 -3.12864,-17.20762 -9.38573,-23.46451 -6.25708,-6.25708 -14.07858,-9.38572 -25.02852,-7.8213 -9.38572,0 -17.20722,3.12744 -25.02852,6.25688 -4.69266,1.56623 -9.38572,3.12765 -14.07858,4.69427 -26.59295,6.25708 -48.49303,25.02852 -62.57161,50.05684 -15.64281,29.72159 -20.33567,65.70005 -9.38572,98.55048 18.77144,57.87854 39.1073,118.88553 59.44296,181.45734 -1.56422,4.69446 -3.12864,10.94954 -1.56422,17.20702 3.12884,17.20723 7.8215,32.84983 14.07859,48.49303 10.95014,25.02852 28.15716,50.05685 53.18588,65.70005 6.25708,3.12764 12.51416,6.25708 18.77145,9.38572 h 6.25708 c 0,10.94954 -1.56422,21.89969 -3.12884,32.84983 C 777.72576,-54.353565 751.13261,5.0890036 712.02531,55.146451 633.81109,152.1323 513.36094,213.99001 391.34656,183.41771 353.80368,178.72345 317.82501,167.77511 284.97499,152.1323 144.95555,113.11861 69.793712,-67.800458 87.874758,-212.34641 c 7.821441,-64.13563 34.414342,-123.57819 75.085772,-173.63564 61.00727,-75.08577 143.91434,-120.44996 237.77155,-129.83568 10.95014,21.89968 34.41445,39.10731 61.00719,39.10731 37.54289,0 67.26447,-29.72159 67.26447,-67.26447 0,-37.54289 -29.72158,-67.26447 -67.26447,-67.26447 -28.15716,0 -51.62147,17.20722 -62.57141,40.67172 -111.06443,9.38572 -211.17873,62.57121 -281.57162,151.73536 -46.928605,57.87875 -76.650089,128.27186 -86.03581,201.79321 -8.732429,107.02487 5.47017,185.751753 51.681416,262.66258 65.990494,101.53829 170.921804,178.73296 297.154974,194.10833 20.33586,3.12764 39.1073,3.12764 57.87875,3.12764 122.01437,0 237.77147,-54.75011 317.5501,-153.300385 46.92861,-57.878748 76.65019,-128.271258 86.03591,-201.792805 1.56422,-14.07879 3.12864,-26.59275 3.12864,-40.67153 21.90009,-4.69446 43.80017,-21.90028 56.31433,-39.1073 18.77145,-23.46411 28.15717,-54.74991 34.41445,-84.4715 V -288.998 c 1.56422,-6.25748 4.69306,-12.51436 6.25708,-20.33586 7.8215,-23.4645 17.20722,-48.49283 25.02852,-71.95753 9.38572,-28.15717 20.33586,-56.31433 29.72159,-86.03531 4.69241,-12.51436 7.82131,-28.15717 7.82131,-43.80037 1.5642,-31.2854 -9.38573,-59.44257 -28.15718,-76.65019 z"
         inkscape:connector-curvature="0"
         style="fill:#007fff;fill-opacity:1;stroke:#bfff7d;stroke-width:15.642869;stroke-opacity:0" />
      <path
         style="fill:#00bbff;fill-opacity:1;stroke:#bfff7d;stroke-width:15.642869;stroke-opacity:0"
         inkscape:connector-curvature="0"
         d="m 976.39012,-587.77886 c -14.07858,-12.51376 -31.2858,-21.89948 -46.9286,-29.72098 -1.56422,-1.56623 -3.12884,-1.56623 -4.69326,-3.12744 -9.38573,-6.25709 -21.89989,-12.51457 -32.85003,-12.51457 -6.25708,0 -10.94994,1.56622 -15.6428,4.69426 -12.51436,9.38573 -18.77144,20.33587 -18.77144,32.84983 1.56422,9.38572 7.8215,18.77144 20.33566,25.02892 4.69266,1.56022 7.8215,3.12764 12.51436,3.12764 6.25708,0 12.51436,-1.56622 17.20722,-4.69426 4.69306,-1.56622 7.8213,-3.12764 12.51417,-3.12764 10.95014,0 23.4643,14.07878 34.41444,37.54289 14.07858,32.85022 -1.56422,71.95693 -15.643,106.37157 -3.12864,7.8215 -6.25708,15.6428 -9.38572,23.46411 -12.51417,32.85022 -25.02853,67.26446 -37.54289,100.11469 -9.38572,4.69446 -15.6428,12.51396 -17.20702,23.4641 -10.95014,70.39311 -46.92861,76.65019 -57.87875,76.65019 h -1.56422 -1.56422 c -17.20722,0 -31.2858,-12.51456 -42.23575,-34.41424 l -4.69246,-7.8219 c -7.8215,-17.20703 -10.95014,-32.84963 -10.95014,-34.41405 -1.56422,-9.38572 -6.25708,-15.6426 -14.07858,-20.33586 0,-1.56622 -1.56422,-4.69426 -3.12864,-6.25688 -17.20722,-48.49303 -40.67153,-112.62866 -61.00719,-176.76449 -9.38572,-29.72138 -1.56422,-56.31432 21.90008,-78.21441 6.25708,-4.69446 12.51417,-9.38572 18.77145,-7.8213 3.12864,0 4.69246,1.56622 7.8213,3.12744 4.69246,1.56022 9.38572,4.69446 15.6428,4.69446 h 1.56422 c 18.77144,0 37.54289,-12.51456 37.54289,-32.84982 0,-9.38572 -3.12864,-17.20762 -9.38573,-23.46451 -6.25708,-6.25708 -14.07858,-9.38572 -25.02852,-7.8213 -9.38572,0 -17.20722,3.12744 -25.02852,6.25688 -4.69266,1.56623 -9.38572,3.12765 -14.07858,4.69427 -26.59295,6.25708 -48.49303,25.02852 -62.57161,50.05684 -15.64281,29.72159 -20.33567,65.70005 -9.38572,98.55048 18.77144,57.87854 39.1073,118.88553 59.44296,181.45734 -1.56422,4.69446 -3.12864,10.94954 -1.56422,17.20702 3.12884,17.20723 7.8215,32.84983 14.07859,48.49303 24.45969,80.8191 175.50603,152.188599 228.38635,-53.18749 V -288.998 c 1.56422,-6.25748 4.69306,-12.51436 6.25708,-20.33586 7.8215,-23.4645 17.20722,-48.49283 25.02852,-71.95753 9.38572,-28.15717 20.33586,-56.31433 29.72159,-86.03531 4.69241,-12.51436 7.82131,-28.15717 7.82131,-43.80037 1.5642,-31.2854 -9.38573,-59.44257 -28.15718,-76.65019 z"
         id="path1051"
         sodipodi:nodetypes="cccscccscscccccscscccccccccsssccccccccccccccccc" />
    </g>
  </g>
</svg>
