<svg xmlns:dc="http://purl.org/dc/elements/1.1/" xmlns:cc="http://creativecommons.org/ns#" xmlns:rdf="http://www.w3.org/1999/02/22-rdf-syntax-ns#" xmlns:svg="http://www.w3.org/2000/svg" xmlns="http://www.w3.org/2000/svg" xmlns:sodipodi="http://sodipodi.sourceforge.net/DTD/sodipodi-0.dtd" xmlns:inkscape="http://www.inkscape.org/namespaces/inkscape" version="1.1" x="0px" y="0px" viewBox="0 0 100 125"><g transform="translate(0,-952.36218)"><path d="m 12.456152,999.8518 c 1.0334,0.0131 2.1348,0.26 3.2187,0.7812 l 18.7187,9 c 0.8884,-2.0507 3.0326,-3.4439 5.4376,-3.375 l 10.75,0.3126 c 2.635,0 4.6426,-0.6195 7.1562,-1.3438 2.5219,-0.7267 5.5109,-1.5312 9.6562,-1.5312 3.4141,0 8.0297,1.044 11.7813,2.3124 l 0,-2.3437 c 0,-0.2618 0.0248,-0.5394 0.125,-0.7813 0.1002,-0.2418 0.2524,-0.4711 0.4375,-0.6562 0.1851,-0.1851 0.4145,-0.3373 0.6562,-0.4375 0.2418,-0.1002 0.5196,-0.125 0.7813,-0.125 l 10.8125,0 c 0.2618,0 0.5394,0.025 0.7812,0.125 0.2418,0.1002 0.4712,0.2524 0.6563,0.4375 0.1851,0.1851 0.3373,0.4144 0.4375,0.6562 0.1002,0.2419 0.125,0.5195 0.125,0.7813 l 0,8.1563 0,21.5937 c 0,0.2617 -0.0248,0.5082 -0.125,0.75 -0.1002,0.2419 -0.2524,0.4712 -0.4375,0.6563 -0.1851,0.1851 -0.4145,0.3372 -0.6563,0.4374 -0.2418,0.1002 -0.5194,0.1563 -0.7812,0.1563 l -10.8125,0 c -0.2617,0 -0.5395,-0.056 -0.7813,-0.1563 -0.2417,-0.1001 -0.4711,-0.2523 -0.6562,-0.4374 -0.1851,-0.1852 -0.3373,-0.4145 -0.4375,-0.6563 -0.1002,-0.2418 -0.125,-0.4883 -0.125,-0.75 l 0,-2.5625 c -13.1673,-2.33 -21.0133,1.6347 -32.875,1.625 -2.4539,-10e-4 -5.0322,-1.206 -8.25,-2.875 -3.2184,-1.6693 -6.9007,-3.9079 -10.624999,-6.3125 -7.4487,-4.8091 -15.060801,-10.284 -19.0313007,-12.9687 -1.3622,-0.9231 -2.1777,-2.3757 -2.3437,-3.8126 -0.1659,-1.4367 0.231,-2.8363 1.0313,-4 1.1004,-1.5999 3.1011997,-2.6849 5.3749997,-2.6562 z m -0.2813,3.9062 c -0.9005,-0.012 -1.4356,0.4519 -1.8125,1 -0.2872,0.4176 -0.3870997,0.9366 -0.3438,1.3126 0.0435,0.3755 0.1425,0.6312 0.5938,0.9374 4.09,2.7656 11.669601,8.2048 19,12.9376 3.6656,2.3667 7.2572,4.5564 10.2812,6.125 3.0241,1.5685 5.6506,2.4062 6.4063,2.4062 10.7359,0.01 19.1424,-3.9471 32.875,-1.6875 l 0,-1.7187 c -0.0033,-0.264 0.0263,-0.5366 0.125,-0.7813 0.0987,-0.2447 0.252,-0.4685 0.4375,-0.6563 0.1854,-0.1877 0.4128,-0.3358 0.6562,-0.4374 0.2435,-0.1018 0.5175,-0.1563 0.7813,-0.1563 0.2639,0 0.5065,0.055 0.75,0.1563 0.2434,0.1016 0.4708,0.2497 0.6563,0.4374 0.1854,0.1877 0.3388,0.4116 0.4374,0.6563 0.0988,0.2447 0.1596,0.5174 0.1563,0.7813 l 0,6.3437 1,0 0,-25.75 -1,0 0,6.3125 c 0.0033,0.2638 -0.0575,0.5365 -0.1563,0.7812 -0.0986,0.2448 -0.252,0.4685 -0.4374,0.6563 -0.1855,0.1877 -0.4129,0.3357 -0.6563,0.4375 -0.2435,0.1017 -0.4861,0.1562 -0.75,0.1562 -0.2638,0 -0.5378,-0.055 -0.7813,-0.1562 -0.2434,-0.1018 -0.4708,-0.2498 -0.6562,-0.4375 -0.1855,-0.1878 -0.3388,-0.4115 -0.4375,-0.6563 -0.0987,-0.2447 -0.1283,-0.5174 -0.125,-0.7812 l 0,-1.7188 c -3.5285,-1.3006 -8.9437,-2.5624 -11.7813,-2.5624 -3.6547,0 -6.1042,0.6667 -8.5624,1.375 -2.4583,0.7083 -4.9893,1.5 -8.2813,1.5 -0.0197,0 -0.0116,10e-4 -0.0313,0 l -10.8124,-0.3126 c -1.0128,-0.028 -1.75,0.7587 -1.75,1.5 0,0.7418 0.7173,1.4486 1.9062,1.5 l 20.5312,0.9063 c 0.2641,0.01 0.5092,0.047 0.75,0.1563 0.2408,0.1087 0.4762,0.2753 0.6563,0.4687 0.1801,0.1933 0.3147,0.4083 0.4063,0.6563 0.0915,0.2479 0.1363,0.5172 0.125,0.7812 -0.0114,0.2639 -0.0753,0.542 -0.1876,0.7812 -0.1122,0.2392 -0.2728,0.4478 -0.4687,0.625 -0.1959,0.1774 -0.4384,0.3184 -0.6875,0.4063 -0.2492,0.088 -0.5175,0.1089 -0.7812,0.094 l -20.5313,-0.875 c -2.1482,-0.092 -4.1601,-1.2735 -5.125,-3.0937 l -20.625,-9.9375 c -0.7016,-0.3374 -1.2784,-0.4623 -1.75,-0.4688 z" style="text-indent:0;text-transform:none;direction:ltr;block-progression:tb;baseline-shift:baseline;color:#000000;enable-background:accumulate;" fill="#000000" fill-opacity="1" fill-rule="evenodd" stroke="none" marker="none" visibility="visible" display="inline" overflow="visible"/><path d="m 49.643552,974.2268 c 0.3576,-0.0132 0.7172,0.0784 1.0313,0.25 0.3141,0.1715 0.5678,0.4107 0.75,0.7188 1.0333,1.7481 3.4623,5.3249 5.625,8.9374 1.0814,1.8064 2.0984,3.6407 2.875,5.3438 0.7765,1.7032 1.375,3.2245 1.375,4.8438 0,6.3815 -5.2121,11.5937 -11.5937,11.5937 -6.3817,0 -11.5938,-5.2122 -11.5938,-11.5937 0,-1.6193 0.5673,-3.1406 1.3438,-4.8438 0.7765,-1.7031 1.8249,-3.5374 2.9062,-5.3438 2.1628,-3.6125 4.5917,-7.1893 5.625,-8.9374 0.1697,-0.2871 0.4011,-0.517 0.6875,-0.6876 0.2865,-0.1703 0.6357,-0.269 0.9687,-0.2812 z m 0.0626,5.75 c -1.1787,1.8275 -2.6208,4.0195 -3.9376,6.2188 -1.0385,1.7349 -1.9828,3.4602 -2.6562,4.9374 -0.6735,1.4773 -1,2.7767 -1,3.1876 0,4.2182 3.3754,7.5937 7.5938,7.5937 4.2183,0 7.5937,-3.3755 7.5937,-7.5937 0,-0.4109 -0.3265,-1.7103 -1,-3.1876 -0.6735,-1.4772 -1.6488,-3.2025 -2.6875,-4.9374 -1.3166,-2.1993 -2.7276,-4.3914 -3.9062,-6.2188 z" style="text-indent:0;text-transform:none;direction:ltr;block-progression:tb;baseline-shift:baseline;color:#000000;enable-background:accumulate;" fill="#000000" fill-opacity="1" fill-rule="evenodd" stroke="none" marker="none" visibility="visible" display="inline" overflow="visible"/><path d="m 33.617552,969.3114 c 0.3592,-0.0135 0.7216,0.0721 1.0367,0.245 0.3152,0.1728 0.5822,0.4323 0.7639,0.7425 0.61,1.0413 2.1556,3.3154 3.5303,5.6121 0.6873,1.1484 1.3405,2.3148 1.8478,3.4257 0.5074,1.1108 0.9263,2.1002 0.9263,3.3428 0,4.4177 -3.6191,8.0397 -8.03,8.0397 -4.4178,0 -8.039699,-3.622 -8.039699,-8.0397 0,-1.2426 0.4187,-2.2322 0.9262,-3.3431 0.5076,-1.111 1.1613,-2.2774 1.8494,-3.426 1.376199,-2.2971 2.924199,-4.5702 3.541899,-5.6172 0.1694,-0.287 0.4119,-0.5305 0.6982,-0.7012 0.2864,-0.1707 0.6159,-0.2681 0.949,-0.2806 z" style="text-indent:0;text-transform:none;direction:ltr;block-progression:tb;baseline-shift:baseline;color:#000000;enable-background:accumulate;" fill="#000000" fill-opacity="1" fill-rule="evenodd" stroke="none" marker="none" visibility="visible" display="inline" overflow="visible"/></g><text x="0" y="115" fill="#000000" font-size="5px" font-weight="bold" font-family="'Helvetica Neue', Helvetica, Arial-Unicode, Arial, Sans-serif">Created by alvianwijaya</text><text x="0" y="120" fill="#000000" font-size="5px" font-weight="bold" font-family="'Helvetica Neue', Helvetica, Arial-Unicode, Arial, Sans-serif">from the Noun Project</text></svg>